<svg width="1024" height="1024" viewBox="0 0 1024 1024" fill="none" xmlns="http://www.w3.org/2000/svg">
  <rect width="1024" height="1024" fill="white"/>
  <!-- QR Code -->
  <g transform="translate(86, 315)">
    <rect x="0" y="0" width="112" height="112" fill="black"/>
    <rect x="16" y="16" width="80" height="80" fill="white"/>
    <rect x="32" y="32" width="48" height="48" fill="black"/>
    
    <rect x="0" y="256" width="112" height="112" fill="black"/>
    <rect x="16" y="272" width="80" height="80" fill="white"/>
    <rect x="32" y="288" width="48" height="48" fill="black"/>
    
    <rect x="256" y="0" width="112" height="112" fill="black"/>
    <rect x="272" y="16" width="80" height="80" fill="white"/>
    <rect x="288" y="32" width="48" height="48" fill="black"/>
    
    <rect x="128" y="0" width="16" height="16" fill="black"/>
    <rect x="128" y="32" width="16" height="16" fill="black"/>
    <rect x="128" y="64" width="16" height="16" fill="black"/>
    <rect x="128" y="96" width="16" height="16" fill="black"/>
    
    <rect x="160" y="16" width="16" height="16" fill="black"/>
    <rect x="160" y="48" width="16" height="16" fill="black"/>
    <rect x="160" y="80" width="16" height="16" fill="black"/>
    
    <rect x="192" y="0" width="16" height="16" fill="black"/>
    <rect x="192" y="32" width="16" height="16" fill="black"/>
    <rect x="192" y="64" width="16" height="16" fill="black"/>
    <rect x="192" y="96" width="16" height="16" fill="black"/>
    
    <rect x="224" y="16" width="16" height="16" fill="black"/>
    <rect x="224" y="48" width="16" height="16" fill="black"/>
    <rect x="224" y="80" width="16" height="16" fill="black"/>
    
    <rect x="0" y="128" width="16" height="16" fill="black"/>
    <rect x="32" y="128" width="16" height="16" fill="black"/>
    <rect x="64" y="128" width="16" height="16" fill="black"/>
    <rect x="96" y="128" width="16" height="16" fill="black"/>
    
    <rect x="16" y="160" width="16" height="16" fill="black"/>
    <rect x="48" y="160" width="16" height="16" fill="black"/>
    <rect x="80" y="160" width="16" height="16" fill="black"/>
    
    <rect x="0" y="192" width="16" height="16" fill="black"/>
    <rect x="32" y="192" width="16" height="16" fill="black"/>
    <rect x="64" y="192" width="16" height="16" fill="black"/>
    <rect x="96" y="192" width="16" height="16" fill="black"/>
    
    <rect x="16" y="224" width="16" height="16" fill="black"/>
    <rect x="48" y="224" width="16" height="16" fill="black"/>
    <rect x="80" y="224" width="16" height="16" fill="black"/>
    
    <rect x="128" y="128" width="32" height="32" fill="black"/>
    <rect x="176" y="128" width="32" height="32" fill="black"/>
    <rect x="224" y="128" width="32" height="32" fill="black"/>
    <rect x="272" y="128" width="32" height="32" fill="black"/>
    <rect x="320" y="128" width="32" height="32" fill="black"/>
    
    <rect x="128" y="176" width="48" height="16" fill="black"/>
    <rect x="192" y="176" width="16" height="16" fill="black"/>
    <rect x="224" y="176" width="48" height="16" fill="black"/>
    <rect x="288" y="176" width="16" height="16" fill="black"/>
    <rect x="320" y="176" width="32" height="16" fill="black"/>
    
    <rect x="128" y="208" width="16" height="16" fill="black"/>
    <rect x="160" y="208" width="32" height="16" fill="black"/>
    <rect x="208" y="208" width="16" height="16" fill="black"/>
    <rect x="240" y="208" width="16" height="16" fill="black"/>
    <rect x="272" y="208" width="48" height="16" fill="black"/>
    <rect x="336" y="208" width="16" height="16" fill="black"/>
    
    <rect x="128" y="240" width="32" height="16" fill="black"/>
    <rect x="176" y="240" width="16" height="16" fill="black"/>
    <rect x="208" y="240" width="32" height="16" fill="black"/>
    <rect x="256" y="240" width="16" height="16" fill="black"/>
    <rect x="288" y="240" width="16" height="16" fill="black"/>
    <rect x="320" y="240" width="32" height="16" fill="black"/>
    
    <rect x="128" y="272" width="16" height="16" fill="black"/>
    <rect x="160" y="272" width="16" height="16" fill="black"/>
    <rect x="192" y="272" width="32" height="16" fill="black"/>
    <rect x="240" y="272" width="16" height="16" fill="black"/>
    <rect x="272" y="272" width="16" height="16" fill="black"/>
    <rect x="304" y="272" width="32" height="16" fill="black"/>
    <rect x="352" y="272" width="16" height="16" fill="black"/>
    
    <rect x="128" y="304" width="48" height="16" fill="black"/>
    <rect x="192" y="304" width="16" height="16" fill="black"/>
    <rect x="224" y="304" width="32" height="16" fill="black"/>
    <rect x="272" y="304" width="16" height="16" fill="black"/>
    <rect x="304" y="304" width="16" height="16" fill="black"/>
    <rect x="336" y="304" width="32" height="16" fill="black"/>
    
    <rect x="128" y="336" width="16" height="16" fill="black"/>
    <rect x="160" y="336" width="32" height="16" fill="black"/>
    <rect x="208" y="336" width="16" height="16" fill="black"/>
    <rect x="240" y="336" width="48" height="16" fill="black"/>
    <rect x="304" y="336" width="16" height="16" fill="black"/>
    <rect x="336" y="336" width="16" height="16" fill="black"/>
  </g>
  
  <!-- QRtrX Text -->
  <text x="480" y="580" font-family="Arial, sans-serif" font-size="220" font-weight="bold" fill="black">QRtrX</text>
</svg>
