<svg width="200" height="60" viewBox="0 0 200 60" fill="none" xmlns="http://www.w3.org/2000/svg">
  <!-- QR Code Pattern -->
  <g transform="translate(5, 10)">
    <!-- Top-left corner -->
    <rect x="0" y="0" width="14" height="14" fill="black"/>
    <rect x="2" y="2" width="10" height="10" fill="white"/>
    <rect x="4" y="4" width="6" height="6" fill="black"/>
    
    <!-- Top-right corner -->
    <rect x="26" y="0" width="14" height="14" fill="black"/>
    <rect x="28" y="2" width="10" height="10" fill="white"/>
    <rect x="30" y="4" width="6" height="6" fill="black"/>
    
    <!-- Bottom-left corner -->
    <rect x="0" y="26" width="14" height="14" fill="black"/>
    <rect x="2" y="28" width="10" height="10" fill="white"/>
    <rect x="4" y="30" width="6" height="6" fill="black"/>
    
    <!-- Middle pattern -->
    <rect x="16" y="2" width="2" height="2" fill="black"/>
    <rect x="16" y="6" width="2" height="2" fill="black"/>
    <rect x="16" y="10" width="2" height="2" fill="black"/>
    <rect x="20" y="4" width="2" height="2" fill="black"/>
    <rect x="20" y="8" width="2" height="2" fill="black"/>
    <rect x="24" y="2" width="2" height="2" fill="black"/>
    
    <rect x="2" y="16" width="2" height="2" fill="black"/>
    <rect x="6" y="16" width="2" height="2" fill="black"/>
    <rect x="10" y="16" width="2" height="2" fill="black"/>
    <rect x="4" y="20" width="2" height="2" fill="black"/>
    <rect x="8" y="20" width="2" height="2" fill="black"/>
    <rect x="12" y="20" width="2" height="2" fill="black"/>
    <rect x="2" y="24" width="2" height="2" fill="black"/>
    
    <rect x="16" y="16" width="4" height="4" fill="black"/>
    <rect x="22" y="16" width="4" height="4" fill="black"/>
    <rect x="28" y="16" width="4" height="4" fill="black"/>
    <rect x="34" y="16" width="4" height="4" fill="black"/>
    
    <rect x="16" y="22" width="6" height="2" fill="black"/>
    <rect x="24" y="22" width="2" height="2" fill="black"/>
    <rect x="28" y="22" width="6" height="2" fill="black"/>
    <rect x="36" y="22" width="4" height="2" fill="black"/>
    
    <rect x="16" y="26" width="2" height="2" fill="black"/>
    <rect x="20" y="26" width="4" height="2" fill="black"/>
    <rect x="26" y="26" width="2" height="2" fill="black"/>
    <rect x="30" y="26" width="6" height="2" fill="black"/>
    <rect x="38" y="26" width="2" height="2" fill="black"/>
    
    <rect x="16" y="30" width="4" height="2" fill="black"/>
    <rect x="22" y="30" width="2" height="2" fill="black"/>
    <rect x="26" y="30" width="4" height="2" fill="black"/>
    <rect x="32" y="30" width="2" height="2" fill="black"/>
    <rect x="36" y="30" width="4" height="2" fill="black"/>
    
    <rect x="16" y="34" width="2" height="2" fill="black"/>
    <rect x="20" y="34" width="2" height="2" fill="black"/>
    <rect x="24" y="34" width="4" height="2" fill="black"/>
    <rect x="30" y="34" width="2" height="2" fill="black"/>
    <rect x="34" y="34" width="4" height="2" fill="black"/>
    
    <rect x="16" y="38" width="6" height="2" fill="black"/>
    <rect x="24" y="38" width="2" height="2" fill="black"/>
    <rect x="28" y="38" width="4" height="2" fill="black"/>
    <rect x="34" y="38" width="2" height="2" fill="black"/>
    <rect x="38" y="38" width="2" height="2" fill="black"/>
  </g>
  
  <!-- QRtrX Text -->
  <text x="60" y="42" font-family="Arial, sans-serif" font-size="32" font-weight="bold" fill="black">QRtrX</text>
</svg>
